<svg xmlns="http://www.w3.org/2000/svg" xmlns:xlink="http://www.w3.org/1999/xlink" width="500" zoomAndPan="magnify" viewBox="0 0 375 112.499997" height="150" preserveAspectRatio="xMidYMid meet" version="1.0"><defs><g/><clipPath id="048fc3ad86"><path d="M 0.828125 0 L 374.167969 0 L 374.167969 112.003906 L 0.828125 112.003906 Z M 0.828125 0 " clip-rule="nonzero"/></clipPath><clipPath id="1adc68e7f6"><path d="M 169 28.109375 L 279 28.109375 L 279 84 L 169 84 Z M 169 28.109375 " clip-rule="nonzero"/></clipPath></defs><g clip-path="url(#048fc3ad86)"><path fill="#ffffff" d="M 0.828125 0 L 374.171875 0 L 374.171875 112.003906 L 0.828125 112.003906 Z M 0.828125 0 " fill-opacity="1" fill-rule="nonzero"/><path fill="#ffffff" d="M 0.828125 0 L 374.171875 0 L 374.171875 112.003906 L 0.828125 112.003906 Z M 0.828125 0 " fill-opacity="1" fill-rule="nonzero"/></g><g clip-path="url(#1adc68e7f6)"><path fill="#009975" d="M 251.304688 28.425781 C 249.3125 28.414062 247.339844 28.617188 245.394531 29.03125 C 243.445312 29.449219 241.566406 30.070312 239.753906 30.898438 C 237.941406 31.726562 236.238281 32.742188 234.648438 33.941406 C 233.058594 35.140625 231.613281 36.496094 230.320312 38.011719 L 226.257812 42.691406 L 235.324219 53.164062 L 240.675781 46.992188 C 241.332031 46.226562 242.0625 45.539062 242.867188 44.933594 C 243.675781 44.328125 244.535156 43.8125 245.453125 43.394531 C 246.371094 42.976562 247.324219 42.660156 248.308594 42.449219 C 249.296875 42.238281 250.292969 42.136719 251.304688 42.140625 C 252.207031 42.128906 253.105469 42.207031 253.992188 42.371094 C 254.882812 42.539062 255.746094 42.789062 256.582031 43.125 C 257.421875 43.464844 258.21875 43.878906 258.976562 44.375 C 259.730469 44.871094 260.429688 45.4375 261.074219 46.074219 C 261.71875 46.707031 262.292969 47.398438 262.796875 48.148438 C 263.304688 48.898438 263.730469 49.6875 264.082031 50.523438 C 264.429688 51.355469 264.691406 52.214844 264.871094 53.101562 C 265.050781 53.988281 265.136719 54.882812 265.136719 55.789062 C 265.136719 56.691406 265.050781 57.585938 264.871094 58.472656 C 264.691406 59.359375 264.429688 60.21875 264.082031 61.054688 C 263.730469 61.886719 263.304688 62.679688 262.796875 63.429688 C 262.292969 64.179688 261.71875 64.871094 261.074219 65.503906 C 260.429688 66.140625 259.730469 66.703125 258.976562 67.199219 C 258.21875 67.695312 257.421875 68.113281 256.582031 68.449219 C 255.746094 68.789062 254.882812 69.039062 253.992188 69.203125 C 253.105469 69.371094 252.207031 69.449219 251.304688 69.433594 C 250.296875 69.441406 249.304688 69.339844 248.320312 69.128906 C 247.335938 68.917969 246.386719 68.605469 245.472656 68.1875 C 244.558594 67.769531 243.699219 67.257812 242.894531 66.652344 C 242.089844 66.050781 241.363281 65.363281 240.707031 64.601562 C 220.847656 41.664062 230.28125 52.59375 217.667969 37.992188 C 216.371094 36.480469 214.925781 35.128906 213.335938 33.929688 C 211.742188 32.734375 210.042969 31.722656 208.230469 30.894531 C 206.417969 30.070312 204.539062 29.449219 202.589844 29.03125 C 200.644531 28.617188 198.675781 28.414062 196.683594 28.425781 C 195.78125 28.421875 194.882812 28.457031 193.988281 28.542969 C 193.09375 28.625 192.203125 28.75 191.316406 28.921875 C 190.433594 29.089844 189.5625 29.304688 188.699219 29.558594 C 187.835938 29.816406 186.988281 30.117188 186.15625 30.457031 C 185.320312 30.796875 184.507812 31.175781 183.710938 31.597656 C 182.914062 32.015625 182.140625 32.476562 181.390625 32.972656 C 180.640625 33.46875 179.917969 34.003906 179.21875 34.570312 C 178.519531 35.140625 177.851562 35.738281 177.214844 36.375 C 176.574219 37.007812 175.96875 37.671875 175.394531 38.367188 C 174.824219 39.0625 174.285156 39.78125 173.785156 40.527344 C 173.28125 41.277344 172.816406 42.046875 172.390625 42.839844 C 171.964844 43.632812 171.582031 44.441406 171.234375 45.273438 C 170.886719 46.105469 170.585938 46.949219 170.320312 47.8125 C 170.058594 48.671875 169.839844 49.542969 169.664062 50.425781 C 169.488281 51.308594 169.355469 52.199219 169.265625 53.09375 C 169.179688 53.992188 169.132812 54.886719 169.132812 55.789062 C 169.132812 56.6875 169.179688 57.585938 169.265625 58.480469 C 169.355469 59.378906 169.488281 60.265625 169.664062 61.148438 C 169.839844 62.03125 170.058594 62.902344 170.320312 63.765625 C 170.585938 64.625 170.886719 65.472656 171.234375 66.304688 C 171.582031 67.132812 171.964844 67.945312 172.390625 68.738281 C 172.816406 69.53125 173.28125 70.300781 173.785156 71.046875 C 174.285156 71.796875 174.824219 72.515625 175.394531 73.210938 C 175.96875 73.902344 176.574219 74.566406 177.214844 75.203125 C 177.851562 75.835938 178.519531 76.4375 179.21875 77.007812 C 179.917969 77.574219 180.640625 78.105469 181.390625 78.605469 C 182.140625 79.101562 182.914062 79.558594 183.710938 79.980469 C 184.507812 80.402344 185.320312 80.78125 186.15625 81.121094 C 186.988281 81.460938 187.835938 81.761719 188.699219 82.015625 C 189.5625 82.273438 190.433594 82.488281 191.316406 82.65625 C 192.203125 82.828125 193.09375 82.953125 193.988281 83.035156 C 194.882812 83.117188 195.78125 83.15625 196.683594 83.152344 C 198.675781 83.164062 200.644531 82.960938 202.59375 82.542969 C 204.542969 82.128906 206.421875 81.503906 208.234375 80.675781 C 210.046875 79.851562 211.746094 78.835938 213.339844 77.636719 C 214.929688 76.4375 216.371094 75.082031 217.667969 73.566406 L 221.730469 68.886719 L 212.660156 58.410156 L 207.3125 64.582031 C 206.65625 65.351562 205.925781 66.035156 205.117188 66.644531 C 204.3125 67.25 203.449219 67.761719 202.53125 68.183594 C 201.613281 68.601562 200.664062 68.917969 199.675781 69.128906 C 198.6875 69.339844 197.691406 69.441406 196.683594 69.433594 C 195.777344 69.449219 194.882812 69.371094 193.992188 69.203125 C 193.105469 69.039062 192.242188 68.789062 191.402344 68.449219 C 190.5625 68.113281 189.765625 67.695312 189.011719 67.199219 C 188.253906 66.703125 187.554688 66.140625 186.914062 65.503906 C 186.269531 64.871094 185.695312 64.179688 185.1875 63.429688 C 184.683594 62.679688 184.253906 61.886719 183.90625 61.054688 C 183.558594 60.21875 183.292969 59.359375 183.117188 58.472656 C 182.9375 57.585938 182.847656 56.691406 182.847656 55.789062 C 182.847656 54.882812 182.9375 53.988281 183.117188 53.101562 C 183.292969 52.214844 183.558594 51.355469 183.90625 50.523438 C 184.253906 49.6875 184.683594 48.898438 185.1875 48.148438 C 185.695312 47.398438 186.269531 46.707031 186.914062 46.074219 C 187.554688 45.4375 188.253906 44.871094 189.011719 44.375 C 189.765625 43.878906 190.5625 43.464844 191.402344 43.125 C 192.242188 42.789062 193.105469 42.539062 193.992188 42.371094 C 194.882812 42.207031 195.777344 42.128906 196.683594 42.140625 C 197.6875 42.136719 198.683594 42.238281 199.667969 42.449219 C 200.648438 42.65625 201.597656 42.972656 202.515625 43.390625 C 203.429688 43.808594 204.289062 44.316406 205.089844 44.921875 C 205.894531 45.527344 206.625 46.210938 207.277344 46.976562 C 227.140625 69.914062 217.703125 58.984375 230.320312 73.585938 C 230.6875 74.023438 231.074219 74.453125 231.46875 74.871094 C 231.867188 75.285156 232.273438 75.6875 232.699219 76.082031 C 233.121094 76.472656 233.554688 76.847656 234 77.210938 C 234.445312 77.574219 234.902344 77.925781 235.367188 78.257812 C 235.835938 78.59375 236.3125 78.914062 236.800781 79.21875 C 237.289062 79.523438 237.785156 79.8125 238.292969 80.085938 C 238.796875 80.359375 239.3125 80.617188 239.835938 80.859375 C 240.355469 81.101562 240.886719 81.324219 241.421875 81.53125 C 241.957031 81.742188 242.5 81.933594 243.046875 82.105469 C 243.597656 82.28125 244.148438 82.4375 244.707031 82.578125 C 245.265625 82.714844 245.828125 82.839844 246.390625 82.941406 C 246.957031 83.046875 247.527344 83.132812 248.097656 83.199219 C 248.667969 83.269531 249.242188 83.320312 249.816406 83.351562 C 250.390625 83.386719 250.964844 83.398438 251.539062 83.394531 C 252.113281 83.390625 252.6875 83.371094 253.261719 83.332031 C 253.835938 83.292969 254.410156 83.234375 254.980469 83.160156 C 255.550781 83.082031 256.117188 82.988281 256.679688 82.878906 C 257.246094 82.765625 257.804688 82.640625 258.359375 82.492188 C 258.917969 82.347656 259.46875 82.183594 260.015625 82 C 260.558594 81.820312 261.101562 81.621094 261.632812 81.40625 C 262.167969 81.191406 262.695312 80.960938 263.210938 80.714844 C 263.730469 80.464844 264.242188 80.203125 264.746094 79.921875 C 265.246094 79.644531 265.742188 79.347656 266.222656 79.035156 C 266.707031 78.726562 267.183594 78.398438 267.644531 78.058594 C 268.109375 77.71875 268.5625 77.363281 269.003906 76.996094 C 269.441406 76.625 269.871094 76.242188 270.289062 75.847656 C 270.707031 75.453125 271.109375 75.042969 271.503906 74.621094 C 271.894531 74.199219 272.273438 73.765625 272.636719 73.324219 C 273 72.878906 273.351562 72.421875 273.6875 71.953125 C 274.023438 71.488281 274.34375 71.011719 274.648438 70.523438 C 274.953125 70.035156 275.246094 69.539062 275.519531 69.035156 C 275.792969 68.527344 276.050781 68.015625 276.292969 67.492188 C 276.539062 66.972656 276.761719 66.445312 276.972656 65.90625 C 277.179688 65.371094 277.375 64.832031 277.546875 64.28125 C 277.722656 63.734375 277.882812 63.183594 278.023438 62.625 C 278.164062 62.066406 278.285156 61.503906 278.390625 60.941406 C 278.496094 60.375 278.582031 59.804688 278.652344 59.234375 C 278.722656 58.664062 278.773438 58.089844 278.808594 57.519531 C 278.839844 56.945312 278.855469 56.367188 278.855469 55.792969 C 278.851562 55.21875 278.832031 54.644531 278.792969 54.070312 C 278.753906 53.496094 278.699219 52.925781 278.625 52.355469 C 278.550781 51.785156 278.457031 51.214844 278.347656 50.652344 C 278.238281 50.085938 278.109375 49.527344 277.964844 48.96875 C 277.820312 48.414062 277.65625 47.863281 277.476562 47.316406 C 277.296875 46.769531 277.097656 46.230469 276.886719 45.695312 C 276.671875 45.160156 276.441406 44.636719 276.195312 44.117188 C 275.949219 43.597656 275.683594 43.085938 275.40625 42.582031 C 275.128906 42.078125 274.832031 41.585938 274.523438 41.101562 C 274.210938 40.617188 273.886719 40.140625 273.546875 39.679688 C 273.207031 39.214844 272.855469 38.761719 272.488281 38.320312 C 272.117188 37.875 271.738281 37.445312 271.339844 37.027344 C 270.945312 36.609375 270.539062 36.207031 270.117188 35.8125 C 269.699219 35.421875 269.265625 35.042969 268.820312 34.675781 C 268.375 34.3125 267.921875 33.960938 267.453125 33.625 C 266.988281 33.289062 266.511719 32.964844 266.023438 32.660156 C 265.539062 32.351562 265.042969 32.0625 264.539062 31.785156 C 264.035156 31.511719 263.519531 31.25 263 31.007812 C 262.476562 30.765625 261.949219 30.539062 261.414062 30.328125 C 260.878906 30.117188 260.335938 29.925781 259.789062 29.75 C 259.242188 29.570312 258.691406 29.414062 258.132812 29.273438 C 257.574219 29.128906 257.015625 29.007812 256.449219 28.898438 C 255.882812 28.792969 255.316406 28.707031 254.746094 28.632812 C 254.175781 28.5625 253.601562 28.511719 253.027344 28.476562 C 252.453125 28.441406 251.878906 28.425781 251.304688 28.425781 Z M 251.304688 28.425781 " fill-opacity="1" fill-rule="nonzero"/></g><g fill="#009975" fill-opacity="1"><g transform="translate(3.988061, 79.710571)"><g><path d="M 16.015625 -39.90625 L 0.28125 -39.90625 L 0.28125 -49.171875 L 43.140625 -49.171875 L 43.140625 -39.90625 L 27.390625 -39.90625 L 27.390625 0 L 16.015625 0 Z M 16.015625 -39.90625 "/></g></g></g><g fill="#009975" fill-opacity="1"><g transform="translate(55.687954, 79.710571)"><g><path d="M 37.15625 0 L 27.671875 -13.703125 L 17.21875 -13.703125 L 17.21875 0 L 5.828125 0 L 5.828125 -49.171875 L 27.109375 -49.171875 C 31.472656 -49.171875 35.257812 -48.441406 38.46875 -46.984375 C 41.675781 -45.535156 44.144531 -43.476562 45.875 -40.8125 C 47.601562 -38.144531 48.46875 -34.984375 48.46875 -31.328125 C 48.46875 -27.679688 47.585938 -24.53125 45.828125 -21.875 C 44.078125 -19.226562 41.585938 -17.207031 38.359375 -15.8125 L 49.390625 0 Z M 36.953125 -31.328125 C 36.953125 -34.085938 36.0625 -36.207031 34.28125 -37.6875 C 32.5 -39.164062 29.898438 -39.90625 26.484375 -39.90625 L 17.21875 -39.90625 L 17.21875 -22.765625 L 26.484375 -22.765625 C 29.898438 -22.765625 32.5 -23.507812 34.28125 -25 C 36.0625 -26.5 36.953125 -28.609375 36.953125 -31.328125 Z M 36.953125 -31.328125 "/></g></g></g><g fill="#009975" fill-opacity="1"><g transform="translate(115.606314, 79.710571)"><g><path d="M 43.90625 -9.125 L 43.90625 0 L 5.828125 0 L 5.828125 -49.171875 L 43 -49.171875 L 43 -40.046875 L 17.140625 -40.046875 L 17.140625 -29.359375 L 39.96875 -29.359375 L 39.96875 -20.515625 L 17.140625 -20.515625 L 17.140625 -9.125 Z M 43.90625 -9.125 "/></g></g></g><g fill="#009975" fill-opacity="1"><g transform="translate(171.045157, 79.710571)"><g/></g></g><g fill="#009975" fill-opacity="1"><g transform="translate(199.213533, 79.710571)"><g/></g></g><g fill="#009975" fill-opacity="1"><g transform="translate(227.381908, 79.710571)"><g/></g></g><g fill="#009975" fill-opacity="1"><g transform="translate(255.550286, 79.710571)"><g/></g></g><g fill="#009975" fill-opacity="1"><g transform="translate(283.726887, 79.710571)"><g><path d="M 5.828125 -49.171875 L 17.21875 -49.171875 L 17.21875 0 L 5.828125 0 Z M 5.828125 -49.171875 "/></g></g></g><g fill="#009975" fill-opacity="1"><g transform="translate(315.056216, 79.710571)"><g><path d="M 29.640625 0.84375 C 24.535156 0.84375 19.929688 -0.253906 15.828125 -2.453125 C 11.734375 -4.660156 8.523438 -7.695312 6.203125 -11.5625 C 3.890625 -15.425781 2.734375 -19.769531 2.734375 -24.59375 C 2.734375 -29.414062 3.890625 -33.757812 6.203125 -37.625 C 8.523438 -41.488281 11.734375 -44.519531 15.828125 -46.71875 C 19.929688 -48.914062 24.535156 -50.015625 29.640625 -50.015625 C 34.742188 -50.015625 39.332031 -48.914062 43.40625 -46.71875 C 47.488281 -44.519531 50.695312 -41.488281 53.03125 -37.625 C 55.375 -33.757812 56.546875 -29.414062 56.546875 -24.59375 C 56.546875 -19.769531 55.375 -15.425781 53.03125 -11.5625 C 50.695312 -7.695312 47.488281 -4.660156 43.40625 -2.453125 C 39.332031 -0.253906 34.742188 0.84375 29.640625 0.84375 Z M 29.640625 -8.84375 C 32.546875 -8.84375 35.171875 -9.507812 37.515625 -10.84375 C 39.859375 -12.1875 41.695312 -14.050781 43.03125 -16.4375 C 44.363281 -18.820312 45.03125 -21.539062 45.03125 -24.59375 C 45.03125 -27.632812 44.363281 -30.347656 43.03125 -32.734375 C 41.695312 -35.117188 39.859375 -36.976562 37.515625 -38.3125 C 35.171875 -39.65625 32.546875 -40.328125 29.640625 -40.328125 C 26.742188 -40.328125 24.125 -39.65625 21.78125 -38.3125 C 19.4375 -36.976562 17.597656 -35.117188 16.265625 -32.734375 C 14.929688 -30.347656 14.265625 -27.632812 14.265625 -24.59375 C 14.265625 -21.539062 14.929688 -18.820312 16.265625 -16.4375 C 17.597656 -14.050781 19.4375 -12.1875 21.78125 -10.84375 C 24.125 -9.507812 26.742188 -8.84375 29.640625 -8.84375 Z M 29.640625 -8.84375 "/></g></g></g></svg>